<?xml version="1.0" encoding="UTF-8"?>
<svg id="Capa_1" data-name="Capa 1" xmlns="http://www.w3.org/2000/svg" viewBox="0 0 1080 1080">
  <defs>
    <style>
      .cls-1 {
        fill: #fff;
      }

      .cls-2 {
        fill: #f2f8f8;
      }

      .cls-3 {
        fill: #69b3b1;
      }

      .cls-4 {
        fill: #23404b;
      }

      .cls-5 {
        fill: #67aea5;
      }
    </style>
  </defs>
  <rect class="cls-5" width="1080" height="1080"/>
  <g>
    <g>
      <path class="cls-1" d="M311.37,784.36c-6.22-21.92-1.54-42.09,9.8-61.19,6.72-11.32,14.12-22.19,21.35-33.18,13.01-19.78,26.01-39.65,36.17-61.15,2-4.23,4.74-7.84,9.47-9.38-2.03-4.45-4.61-8.57-7.52-12.48-4.12-5.53-4.65-5.59-8.31,.18-12.3,19.32-23.18,39.51-36.76,58.05-11.09,15.15-22.99,29.73-32.88,45.75-4.04,6.54-6.86,13.49-8.49,20.52-.41,1.76-.74,3.52-1,5.28-.18,1.21-.32,2.42-.43,3.63-.1,1.17-.17,2.35-.21,3.52-.01,.39,0,.77,0,1.15-.01,.78-.02,1.57,0,2.35,.01,.46,.04,.92,.06,1.37,.03,.7,.06,1.4,.12,2.1,.04,.49,.1,.97,.15,1.45,.07,.66,.14,1.33,.23,1.98,.07,.5,.15,.99,.23,1.48,.1,.64,.21,1.28,.33,1.91,.1,.5,.21,.99,.32,1.49,.14,.62,.28,1.24,.44,1.85,.13,.49,.27,.99,.41,1.48,.17,.6,.35,1.21,.55,1.8,.16,.49,.32,.97,.49,1.45,.21,.59,.43,1.18,.65,1.76,.19,.48,.38,.95,.57,1.42,.24,.58,.5,1.15,.76,1.71,.21,.46,.43,.92,.65,1.38,.28,.56,.58,1.12,.87,1.67,.24,.44,.48,.88,.73,1.32,.32,.55,.66,1.1,1,1.64,.26,.42,.52,.84,.79,1.25,.36,.55,.75,1.08,1.13,1.61,.28,.39,.55,.78,.84,1.17,.42,.55,.86,1.08,1.3,1.61,.29,.35,.56,.7,.86,1.05,.5,.58,1.04,1.14,1.57,1.7,.26,.27,.51,.56,.78,.83,.81,.82,1.66,1.62,2.53,2.39,0,0,0,0,0,0h0c1.39-1.16,.85-2.59,.46-3.93Z"/>
      <path class="cls-1" d="M250.14,767.16c-.49-18.63,3.25-36.72,7.63-54.58,9.88-40.29,28.52-76.39,54.75-108.42,21.27-25.97,46.3-47.51,75.39-64.73,41.68-24.67,86.41-37.76,134.64-39.67,25.12-1,49.93,1.52,74.39,7.01,6.66,1.5,13.23,3.38,19.4,6.18,1.37,.62,2.72,1.29,4.05,2.01,1.33,.72,2.64,1.49,3.92,2.31,.96,.62,1.91,1.27,2.84,1.95,.93,.68,1.84,1.4,2.74,2.16h0c8.2-4.68,13.67-6.45,21.84-9.77,1.71-.7,4.74-2.08,4.74-2.08-.06-1.52-.86-2.56-2.73-3.37-13.25-5.75-26.62-11.1-40.2-16.11-36.51-13.46-73.85-18.6-112.55-14.51-42.26,4.47-82.05,17.03-119.11,37.49-54.85,30.27-96.62,73.19-122.16,130.96-9.21,20.83-15.09,42.51-17.04,65.38-.23,2.74-.42,5.47-.56,8.2-.06,1.19-.11,2.38-.15,3.57-.11,3.35-.14,6.68-.08,10.01,.02,1.04,.05,2.07,.08,3.11,.01,.34,.03,.69,.04,1.03,.03,.7,.06,1.39,.1,2.09,.02,.4,.05,.81,.07,1.21,.03,.42,.05,.83,.08,1.25,.01,.22,.03,.44,.04,.66,.03,.42,.06,.84,.1,1.26,.03,.35,.06,.69,.09,1.04,.02,.28,.05,.55,.07,.83,.04,.42,.08,.84,.12,1.26,.06,.64,.13,1.29,.21,1.93,.04,.39,.08,.78,.13,1.17,.03,.21,.06,.43,.08,.64,.07,.52,.13,1.04,.2,1.56,.04,.3,.07,.59,.12,.89,.03,.22,.07,.44,.1,.66,.11,.79,.23,1.59,.36,2.38,.05,.31,.11,.62,.16,.93,.12,.71,.24,1.43,.37,2.14,.08,.41,.16,.83,.24,1.24s.16,.83,.24,1.24c.04,.2,.08,.39,.11,.59,.09,.44,.18,.88,.28,1.32,.09,.41,.18,.82,.27,1.23,.04,.17,.08,.35,.11,.52,.1,.45,.21,.9,.31,1.34,.14,.58,.28,1.16,.43,1.74,.11,.44,.22,.89,.34,1.33,.14,.55,.3,1.11,.45,1.66,.01,.05,.03,.1,.04,.15,.11,.42,.23,.83,.34,1.25,0,0,.36,1.15,.93,2.97,2.66-1.66,1.71-4.36,1.65-6.61Z"/>
      <path class="cls-1" d="M384.37,745.12c4.56-.46,9.1-.31,13.7-.92,20.88-2.79,41.85-4.97,62.81-7.16,14.03-1.47,27.62-.25,39.78,7.97,1.31,.88,2.34,2.34,4.16,2.32-1.97-15.2-19.05-24.8-30.98-26.31-18.57-2.35-36.83,.69-55.15,2.95-2.8,.35-5.58,.82-8.34,1.37-4.15,.83-8.26,1.84-12.35,2.89-1.29,.33-2.58,.66-3.86,1-5.51,1.43-11.02,2.84-16.61,3.9-.92,.17-1.84,.34-2.77,.49,0,0,0,0,0,0-1.9,9.3,.53,12.43,9.62,11.51Z"/>
      <path class="cls-1" d="M677.96,479.5c-2.37,1.15-4.82,2.19-7.03,3.61-1.28,.82-3.4,2.46-3.45,3.41,0,.06,0,.12,.02,.19,.17,.6,2.62,2.21,4.07,3.14,2.03,1.3,2.61,2.08,6.31,4.07,2.87,1.54,4.67,2.4,6.11,2.74,.16,.05,.3,.07,.43,.08,.16,.03,.31,.05,.47,.06,.01,0,.02,0,.03,0,.15,.01,.29,.02,.43,.02,.02,0,.03,0,.05,0,.14,0,.28,0,.41-.02,.02,0,.04,0,.06,0,.14-.01,.27-.03,.41-.05,.02,0,.04,0,.06,0,.14-.02,.28-.05,.42-.09,.02,0,.03,0,.05-.01,.15-.04,.29-.08,.44-.12,.01,0,.02,0,.03-.01,.16-.05,.32-.1,.48-.16,0,0,0,0,0,0,1-.35,2.16-.89,3.73-1.54h0c.23-.1,.47-.2,.72-.3,.07-.03,.13-.05,.19-.08,.23-.09,.47-.19,.72-.29,.09-.03,.17-.07,.25-.1,.34-.13,.69-.26,1.06-.4,1.48-.54,2.89-1.48,4.42-2.02,16.83-5.94,33.4-12.5,49.73-19.76,14.76-6.57,28.53-14.53,41.31-24.35,5.1-3.92,8.07-8.13,7.14-15.29-1.32-10.2,1.69-19.8,7.83-28.09,2.74-3.69,2.28-6.41-.48-9.68-6.95-8.24-15.6-12.76-24.23-12.83-16.69,.09-28.72,8.65-30.68,20.12-1.28,7.49-1.75,14.97,.48,22.33,.93,3.06,.55,4.99-2.02,7.37-21.01,19.43-44.22,35.6-69.99,48.06Z"/>
      <path class="cls-1" d="M591.33,696.15c-2.89-9.76-4.77-19.67-6.15-29.76-4.93-36.01,10.76-63.55,36.18-86.54,11.6-10.49,26.07-16.91,40.24-23.66,24.96-11.89,50.28-22.96,76.03-32.9,11.86-4.58,22.66-12.15,35.7-13.61-.59-.66-1.17-1.32-1.76-1.98-7.76-8.61-14.26-15.81-14.57-16.09,0,0,0,0,0,0-.11-.09-.22-.16-.34-.24,0,0-.01,0-.02,0-.16-.1-.33-.17-.5-.23-.04-.01-.08-.03-.12-.04-.18-.06-.37-.1-.57-.11,0,0,0,0,0,0-.03,0-.07,0-.1,0-.11,0-.23,0-.34,.01-.05,0-.1,.01-.15,.02-.04,0-.08,.02-.12,.02-.07,.01-.14,.02-.22,.04-.06,.01-.12,.03-.18,.05-.12,.04-.25,.08-.38,.13-.06,.02-.11,.04-.17,.07-.19,.08-.38,.17-.59,.29-12.46,6.92-25.98,11.45-39.15,16.74-28.86,11.6-57.82,22.97-85.41,37.42-26.2,13.72-46.08,33.42-57.92,61.02-5.12,11.92-7.52,24.27-7.34,36.35,.03,2.2,.15,4.38,.35,6.56,.3,3.26,.8,6.5,1.48,9.69,.77,3.58,1.79,7.1,3.02,10.55,.39,1.08,.8,2.15,1.23,3.21,4.76,11.71,12.27,22.47,22.4,31.46-.16-2.83,.22-5.82-.56-8.47Z"/>
      <path class="cls-1" d="M603.84,628.28c-6.63-.02-12.68,5.67-12.84,12.06-.14,5.39,5.61,10.81,11.61,10.94,5.99,.14,12.33-5.48,12.4-11,.08-6.47-5.05-11.99-11.17-12.01Z"/>
      <g>
        <path class="cls-3" d="M374.12,733.55c.21,.02,.41,.05,.64,.07,0,0,0,0,0,0-.22-.02-.43-.04-.64-.07Z"/>
        <path class="cls-3" d="M797.53,629.54c-2.09-2.83-3.44-7.99-6.98-7.47-2.53,.37-3.19,5.66-4.29,8.9-10.72,31.45-27.04,59.52-50.49,83.19-26.46,26.7-58.32,39.69-95.96,34.52-24.74-3.4-47.54-12.28-66.65-29.49-15.97-14.39-25.78-32.11-31.02-52.56-3.29-12.85-3.65-26.6-1.14-39.02,4.39-21.73,13.26-42.25,28.15-59.51,9.42-10.92,19.06-21.59,31.53-29.19,9.69-5.91,19.46-11.69,29.19-17.53h0c-.9-.76-1.81-1.47-2.74-2.16-.93-.68-1.88-1.34-2.84-1.95-1.28-.83-2.59-1.59-3.92-2.31-1.33-.72-2.68-1.38-4.05-2.01-6.17-2.8-12.73-4.68-19.4-6.18-24.46-5.49-49.27-8.01-74.39-7.01-48.23,1.91-92.96,15-134.64,39.67-29.09,17.22-54.12,38.76-75.39,64.73-26.23,32.03-44.87,68.13-54.75,108.42-4.38,17.87-8.12,35.96-7.63,54.58,.06,2.25,1.01,4.96-1.65,6.61,.67,2.14,1.65,5.22,2.72,8.49,.23,.68,.46,1.38,.7,2.09,0,.02,.02,.05,.02,.07,.49,1.44,1,2.92,1.51,4.36,.02,.05,.04,.1,.06,.16,.1,.29,.21,.58,.31,.87,.04,.1,.07,.2,.11,.3,.09,.24,.17,.48,.26,.72,.04,.12,.09,.24,.13,.36,.08,.21,.15,.42,.23,.62,.05,.13,.1,.26,.15,.39,.07,.2,.15,.39,.22,.58,.05,.13,.1,.26,.14,.38,.07,.18,.14,.37,.21,.55,.05,.13,.1,.25,.15,.38,.07,.17,.13,.33,.19,.5,.05,.13,.1,.25,.15,.37,.07,.17,.13,.32,.19,.48,.04,.11,.09,.22,.13,.32,.07,.16,.13,.31,.19,.46,.04,.1,.08,.2,.12,.29,.07,.16,.13,.31,.2,.46,.03,.07,.07,.15,.1,.22,.1,.22,.19,.42,.28,.61,.14,.27,.27,.54,.41,.82h30.9c-3-4.14-6.44-8.09-8.69-12.61-14.61-29.4-13.77-57.62,5.36-85.34,25.7-37.23,55.63-71.73,73.92-113.83,3.03-6.96,10.14-8.73,17.83-6.46,10.98,3.24,19.5,10.37,25.85,19.24,21.85,30.52,23.13,63.23,8.58,97.16-.76,1.76-1.98,5.21-1.98,5.21,.93,.65,4.23,.43,6.44,.22,16.39-1.52,32.73-3.95,49.25-3.13,14.57,.73,28.61,3.53,41.34,11.23,19.37,11.72,28.32,33.19,22.47,55.06-3.35,12.54-9.45,23.67-18.26,33.24h296.16c1.53-1.18,2.97-2.6,4.29-4.33,7.16-9.35,11.94-20.06,14.24-31.22,9.96-48.31,2.17-93.3-27.56-133.56Z"/>
        <path class="cls-3" d="M500.67,745.01c-12.16-8.21-25.75-9.43-39.78-7.97-20.96,2.19-41.93,4.37-62.81,7.16-4.6,.61-9.14,.46-13.7,.92-9.09,.93-11.52-2.2-9.62-11.51-.36-.03-.7-.07-1.02-.11,0,0-.01,0-.02,0,0,0-.01,0-.02,0-.04,0-.08-.01-.13-.02-.06,0-.11-.01-.17-.02-.04,0-.07,0-.11-.01-.18-.02-.37-.04-.54-.07,0,0,.01,0,.02,0,0,0-.01,0-.02,0,0,0-.01,0-.02,0-.06,0-.12-.02-.18-.03-.02,0-.05,0-.07-.01-.03,0-.05,0-.08-.01-.03,0-.05,0-.08-.01,.03,0,.05,0,.08,.01-.18-.03-.36-.05-.54-.08,0,0,0,0,.01,0,0,0,0,0-.01,0,0,0,0,0-.01,0-.04,0-.07-.01-.11-.02-.06-.01-.12-.02-.18-.03-.01,0-.03,0-.04,0-.01,0-.02,0-.04,0,.01,0,.03,0,.04,0-.16-.03-.32-.06-.46-.09,0,0,0,0,.01,0,0,0,0,0,0,0,0,0,0,0,0,0-.1-.02-.2-.04-.3-.07,0,0-.01,0-.02,0,0,0-.01,0-.02,0-.13-.03-.26-.06-.39-.09,0,0,0,0,0,0,0,0,0,0,0,0,0,0,0,0,0,0-.02,0-.04-.01-.07-.02-.07-.02-.14-.04-.21-.06,0,0,0,0-.01,0,0,0,0,0,0,0-.12-.03-.23-.07-.34-.1,0,0,0,0,0,0,0,0,0,0,0,0,0,0,0,0,0,0-.05-.02-.11-.04-.16-.05-.03-.01-.06-.02-.1-.03,0,0,0,0,0,0,0,0,0,0,0,0-.1-.04-.2-.07-.3-.11,0,0,0,0,0,0,0,0,0,0,0,0-.08-.03-.15-.06-.23-.1,0,0,0,0,0,0,0,0,0,0,0,0,0,0,0,0,0,0-.09-.04-.18-.09-.27-.13,0,0,0,0,0,0,0,0,0,0,0,0,0,0,0,0,0,0-.03-.01-.05-.03-.08-.04-.04-.02-.08-.04-.12-.07,0,0,0,0,0,0,0,0,0,0,0,0-.08-.05-.15-.09-.22-.14,0,0,0,0,0,0,0,0,0,0,0,0,0,0,0,0,0,0-.06-.04-.11-.08-.17-.12,0,0,0,0,0,0,0,0,0,0,0,0,0,0,0,0,0,0-.07-.05-.13-.11-.18-.16,0,0,0,0,0,0,0,0,0,0,0,0,0,0,0,0,0,0-.05-.04-.09-.09-.14-.13,0,0,0,0,0,0s0,0,0,0c-.05-.06-.1-.12-.15-.18,0,0,0,0,0,0,0,0,0,0,0,0,0,0,0,0,0,0-.04-.05-.07-.09-.1-.14,0,0,0,0,0,0,0,0,0,0,0,0h0c-.04-.06-.07-.13-.11-.2,0,0,0,0,0,0,0,0,0,0,0,0-.02-.05-.05-.1-.07-.16,0,0,0,0,0,0,0,0,0,0,0,0-.03-.08-.05-.16-.07-.24,0,0,0,0,0,0,0,0,0,0,0,0,0,0,0,0,0,0-.01-.05-.03-.1-.04-.16,0,0,0,0,0,0s0,0,0,0h0c-.02-.09-.02-.19-.03-.29,0,0,0,0,0,0,0-.03,0-.06,0-.1,0-.02,0-.03,0-.05,0,0,0,0,0,0,0,0,0,0,0-.01,0-.15,0-.3,.02-.46,.02-.17,.05-.35,.09-.54,.12-.54,.34-1.15,.65-1.83,.47-1.03,1.14-2.22,2-3.63,3.75-6.1,7.8-11.97,11.97-17.81,5.71-7.98,8.61-17.46,11.63-26.73,6.69-20.59,7.07-40.69-5.29-59.63-4.73,1.53-7.47,5.14-9.47,9.38-10.17,21.5-23.16,41.37-36.17,61.15-7.23,10.99-14.63,21.86-21.35,33.18-11.34,19.1-16.02,39.27-9.8,61.19,.38,1.34,.92,2.77-.46,3.93h0c.22,.44,.49,.83,.78,1.19,.09,.1,.18,.2,.25,.27,0,0,0,0,.01,.01,.07,.07,.12,.13,.15,.15,.74,.65,1.5,1.27,2.27,1.87,.64,.49,1.29,.96,1.95,1.42,.28,.2,.57,.38,.86,.57,.36,.24,.73,.48,1.1,.71,.38,.24,.76,.47,1.15,.7,.26,.15,.52,.3,.78,.45,.46,.26,.91,.52,1.38,.77,.67,.35,1.34,.7,2.02,1.03,.13,.06,.26,.12,.39,.18,.78,.36,1.57,.71,2.37,1.03h141.6c12.04-3.54,21.49-11.41,29.57-21.57,6.58-8.27,11.97-18.12,7.28-29.75-1.82,.01-2.85-1.44-4.16-2.32Z"/>
        <path class="cls-3" d="M310.9,788.39s0,.02,.01,.04c.02,.05,.04,.1,.08,.16,0,0,0,0,0,.01,.04,.07,.09,.14,.15,.21,.02,.03,.04,.05,.06,.08,.04,.05,.08,.11,.13,.16,.05,.07,.1,.13,.16,.19,.02,.03,.04,.05,.07,.08,.05,.06,.1,.11,.14,.17,0,0,0,0,0,0-.29-.36-.56-.75-.78-1.19-.02,.02-.02,.05,0,.1Z"/>
        <path class="cls-3" d="M585.18,666.4c1.38,10.08,3.26,20,6.15,29.76,.78,2.65,.41,5.64,.56,8.47,.04,.16,.1,.3,.15,.45,.57,.48,1.14,.97,1.73,1.45,.59,.48,1.19,.96,1.81,1.43,2.54,1.96,5.31,3.86,8.31,5.67,1,.6,2.03,1.2,3.09,1.78,4.22,2.33,8.88,4.47,14.02,6.35,.21,.08,.43,.15,.65,.23,1.67,.6,3.38,1.17,5.15,1.71,.43,.13,.87,.25,1.31,.38,.58,.17,1.15,.34,1.74,.5h0s0,0,0,0c0,0,0,0,0,0,.92,.2,1.84,.36,2.76,.53,2.08,.39,4.16,.75,6.27,1.04,.02,0,.04,0,.06,0,.4,.06,.8,.1,1.2,.15,.96,.12,1.91,.25,2.87,.35,0,0,0,0,0,0,.29,.03,.59,.07,.88,.1,1.4,.15,2.79,.28,4.2,.39,37.14,2.94,63.28-16.48,85.08-43.54,16.43-20.39,25.03-44.95,34.82-68.77,10.02-24.38,16.84-50.05,29.31-73.45,1.14-2.14,.65-3.94-.57-5.67-1.74-1.95-4.68-5.23-8.2-9.14-1.27-1.41-2.62-2.92-4.01-4.47-.76-.84-1.52-1.69-2.3-2.56-1.25-1.4-2.53-2.81-3.81-4.24-1.67-1.86-3.35-3.73-5-5.55-.02-.01-.03-.03-.05-.04-13.05,1.46-23.84,9.03-35.7,13.61-25.75,9.94-51.07,21.01-76.03,32.9-14.17,6.75-28.64,13.17-40.24,23.66-25.42,22.99-41.11,50.53-36.18,86.54Zm17.42-15.11c-6-.14-11.75-5.55-11.61-10.94,.17-6.4,6.21-12.08,12.84-12.06,6.12,.02,11.25,5.53,11.17,12.01-.07,5.52-6.4,11.13-12.4,11Z"/>
      </g>
      <path class="cls-1" d="M818.87,451.67c-5.97,5.22-12.07,10.26-18.47,14.94-6.2,4.53-12.36,9.13-18.48,13.76-2.14,1.62-2.38,2.74,.03,5.11,6.98,6.89,15.08,12.92,20,21.57,3.17,5.57,6.08,4.69,10.34,1.73,11.95-8.29,21.45-19.23,31.78-29.23,5.17-5.01,9.15-11.19,17.66-6.59,.81,.44,2,.18,3.02,.24,7.09,.52,13.45-1.78,18.59-6.33,8.24-7.28,10.19-16.86,7.72-27.26-2.23-9.4-8.09-15.4-18.02-16.4-3.2-.32-4.5-2.02-5.72-4.56-2.61-5.44-6.86-9.05-12.85-10.27-11.22-2.28-21.73-.75-29.77,7.94-7.52,8.13-7.77,17.98-4,27.95,1.2,3.18,.73,5.16-1.82,7.4Z"/>
    </g>
    <g>
      <g>
        <polygon class="cls-4" points="367.1 730.25 367.1 730.25 367.1 730.25 367.1 730.25"/>
        <path class="cls-4" d="M893.51,406.76c-6.1-4.69-12.16-9.61-18.65-13.67-13.6-8.51-28.28-12.86-43.85-5.34-4.21,2.03-5.72,1.92-7.89-2.4-5.98-11.9-15.02-20.57-27.96-23.94-.73-.19-1.46-.37-2.21-.53-16.44-3.41-31.79-.6-46.13,8.54-.88,.56-1.72,1.14-2.54,1.72-13.48,9.63-19.51,22.96-17.59,39.45,.9,7.73-1.74,12.3-6.78,16.82-18.5,16.59-39.46,29.24-62.36,38.7-4.86,2.01-10.01,3.44-14.63,5.99-3.09,1.7-5.79,1.95-9.22,.91-13.51-4.14-27.1-8.05-40.72-11.82-21.19-5.86-42.8-8.27-64.79-8.14-41.43,.25-80.72,10.13-119.21,24.73-34.25,12.99-65,31.76-92.43,55.6-17.31,15.04-32.67,32.24-46.35,50.86-24.45,33.29-41.37,69.79-47.56,110.79-3.07,20.31-5.09,40.76-1.87,61.36,2.02,12.92,4.95,25.52,10.2,37.56,.72,1.65,1.26,2.97,1.62,4.06h-36.12c-17.61,0-31.89,14.28-31.89,31.89s14.28,31.89,31.89,31.89h43.2v26.25c0,48.04,38.94,86.98,86.98,86.98h414.45c52.48,0,95.02-42.54,95.02-95.02v-18.21h30.83c17.61,0,31.89-14.28,31.89-31.89s-14.28-31.89-31.89-31.89h-32.92c5.42-10.16,10.56-19.72,13.4-30.3,10.2-37.9,7.06-74.71-8.01-110.9-8.81-21.17-22.03-39.31-36.27-56.87-2.5-3.08-2.98-5.51-1.51-9.28,6.14-15.71,11.92-31.56,17.76-47.39,.91-2.46,2.21-5.16,1.93-7.58-.48-4.09,1.5-6.32,4.08-8.79,10.39-9.96,20.73-19.98,30.9-30.17,2.18-2.19,4.19-2.54,7.04-2.05,6.24,1.06,12.46,1.38,18.62-.97,20.02-7.61,30.18-23.17,32.99-43.32,2.62-18.78-7.28-32.71-21.47-43.63Zm-222.59,76.35c2.21-1.41,4.66-2.46,7.03-3.61,25.77-12.47,48.98-28.63,69.99-48.06,2.57-2.38,2.94-4.31,2.02-7.37-2.23-7.36-1.76-14.84-.48-22.33,1.96-11.47,13.99-20.03,30.68-20.12,8.64,.07,17.28,4.59,24.23,12.83,2.76,3.27,3.21,5.99,.48,9.68-6.14,8.29-9.15,17.89-7.83,28.09,.93,7.16-2.04,11.36-7.14,15.29-12.78,9.83-26.55,17.78-41.31,24.35-16.33,7.27-32.89,13.82-49.73,19.76-1.53,.54-2.94,1.48-4.42,2.02-.37,.14-.72,.27-1.06,.4-.09,.03-.17,.07-.25,.1-.25,.1-.49,.19-.72,.29-.07,.03-.13,.05-.19,.08-.25,.1-.49,.2-.72,.3h0c-1.57,.66-2.74,1.19-3.73,1.54,0,0,0,0,0,0-.16,.06-.33,.11-.48,.16-.01,0-.02,0-.03,.01-.15,.05-.3,.09-.44,.12-.02,0-.03,0-.05,.01-.14,.03-.28,.06-.42,.09-.02,0-.04,0-.06,0-.14,.02-.27,.04-.41,.05-.02,0-.04,0-.06,0-.14,.01-.27,.02-.41,.02-.02,0-.03,0-.05,0-.14,0-.29,0-.43-.02-.01,0-.02,0-.03,0-.15-.01-.31-.03-.47-.06-.13-.01-.27-.04-.43-.08-1.44-.34-3.24-1.19-6.11-2.74-3.69-1.99-4.28-2.77-6.31-4.07-1.45-.93-3.9-2.54-4.07-3.14-.01-.07-.01-.12-.02-.19,.05-.95,2.18-2.59,3.45-3.41Zm43.14,25.25c13.16-5.29,26.69-9.83,39.15-16.74,.17-.09,.33-.17,.49-.24,.09-.04,.18-.08,.27-.11,.06-.03,.12-.04,.19-.07,.06-.02,.13-.05,.19-.07,0,0,0,0,0,0,.14-.04,.27-.07,.39-.09,.04,0,.08-.02,.12-.02,.21-.03,.41-.04,.59-.03,0,0,0,0,0,0,.2,.01,.39,.06,.57,.11,.04,.01,.08,.03,.12,.04,.16,.06,.31,.13,.46,.22,.14,.08,.27,.17,.4,.27,.31,.28,6.81,7.48,14.57,16.09,.59,.66,1.17,1.32,1.76,1.98,.02,.01,.03,.03,.05,.04,.73,.81,1.47,1.63,2.21,2.46,.93,1.03,1.86,2.06,2.78,3.09,1.28,1.42,2.56,2.84,3.81,4.24,.78,.87,1.54,1.72,2.3,2.56,1.39,1.55,2.74,3.05,4.01,4.47,3.52,3.92,6.46,7.2,8.2,9.14,1.22,1.74,1.71,3.54,.57,5.67-12.47,23.41-19.28,49.07-29.31,73.45-9.79,23.83-18.4,48.39-34.82,68.77-21.8,27.06-47.93,46.48-85.08,43.54-1.4-.11-2.8-.24-4.19-.39,0,0,0,0,0,0-.3-.03-.59-.06-.88-.1,0,0,0,0,0,0-.96-.11-1.91-.23-2.87-.35-.44-.06-.89-.1-1.33-.17-1.13-.16-2.26-.34-3.38-.53-.94-.16-1.88-.33-2.81-.5-.92-.17-1.85-.34-2.76-.53,0,0,0,0,0,0,0,0,0,0,0,0h0c-.59-.16-1.16-.33-1.74-.5-.44-.13-.88-.25-1.31-.38-1.77-.54-3.48-1.11-5.15-1.71-.21-.08-.44-.15-.65-.23-10.27-3.75-18.63-8.58-25.42-13.79-.62-.47-1.22-.95-1.81-1.43-.59-.48-1.17-.96-1.73-1.45-.05-.15-.11-.29-.15-.45-10.14-9-17.64-19.76-22.4-31.46-.43-1.06-.84-2.14-1.23-3.21-1.24-3.45-2.26-6.97-3.02-10.55-.68-3.19-1.18-6.42-1.48-9.69-.2-2.17-.32-4.36-.35-6.56-.18-12.08,2.23-24.43,7.34-36.35,11.84-27.59,31.72-47.29,57.92-61.02,27.59-14.45,56.55-25.82,85.41-37.42Zm145.57,310.25c5.75,0,10.42,4.66,10.42,10.42s-4.66,10.42-10.42,10.42H197.11c-5.75,0-10.41-4.66-10.41-10.42s4.66-10.42,10.41-10.42H859.64Zm-548.74-30.21s-.01-.08,0-.1c.22,.44,.49,.83,.78,1.19,0,0,0,0,0,0-.05-.05-.09-.11-.14-.17-.02-.03-.04-.05-.07-.08-.05-.07-.11-.13-.16-.19-.04-.05-.09-.11-.13-.16-.02-.03-.04-.05-.06-.08-.05-.08-.11-.15-.15-.21,0,0,0,0,0-.01-.04-.06-.06-.11-.08-.16,0-.01,0-.02-.01-.04Zm13.1,9.22c-.13-.06-.26-.12-.39-.18-.68-.32-1.36-.67-2.02-1.03-.46-.25-.92-.51-1.38-.77-.26-.15-.52-.3-.78-.45-.39-.23-.77-.46-1.15-.7-.37-.23-.73-.47-1.1-.71-.29-.19-.57-.38-.86-.57-.66-.46-1.31-.93-1.95-1.42-.78-.6-1.54-1.22-2.27-1.87-.03-.02-.08-.08-.15-.15,0,0,0,0-.01-.01-.07-.07-.15-.17-.25-.27-.29-.36-.56-.75-.78-1.19,0,0,0,0,0,0-.88-.77-1.72-1.57-2.53-2.39-.27-.27-.51-.55-.78-.83-.53-.56-1.07-1.12-1.57-1.7-.3-.34-.57-.7-.86-1.05-.44-.53-.88-1.06-1.3-1.61-.29-.38-.56-.78-.84-1.17-.38-.53-.77-1.07-1.13-1.61-.27-.41-.53-.83-.79-1.25-.34-.54-.68-1.09-1-1.64-.25-.44-.49-.88-.73-1.32-.3-.55-.59-1.11-.87-1.67-.23-.45-.44-.91-.65-1.38-.26-.57-.52-1.14-.76-1.71-.2-.47-.39-.94-.57-1.42-.23-.58-.44-1.17-.65-1.76-.17-.48-.33-.96-.49-1.45-.19-.6-.37-1.2-.55-1.8-.14-.49-.28-.98-.41-1.48-.16-.61-.3-1.23-.44-1.85-.11-.5-.22-.99-.32-1.49-.12-.63-.23-1.27-.33-1.91-.08-.49-.17-.99-.23-1.48-.09-.66-.16-1.32-.23-1.98-.05-.48-.11-.97-.15-1.45-.06-.7-.08-1.4-.12-2.1-.02-.46-.05-.91-.06-1.37-.02-.78,0-1.56,0-2.35,0-.38,0-.77,0-1.15,.04-1.17,.11-2.34,.21-3.52,.11-1.21,.25-2.42,.43-3.63,.26-1.76,.59-3.53,1-5.28,1.63-7.03,4.45-13.98,8.49-20.52,9.9-16.02,21.79-30.6,32.88-45.75,13.58-18.54,24.46-38.73,36.76-58.05,3.67-5.76,4.2-5.71,8.31-.18,2.92,3.92,5.49,8.04,7.52,12.48,12.36,18.94,11.98,39.04,5.29,59.63-3.01,9.28-5.92,18.75-11.63,26.73-4.17,5.83-8.22,11.71-11.97,17.81-.86,1.4-1.53,2.6-2,3.63-.31,.68-.53,1.29-.65,1.83-.04,.19-.07,.36-.09,.54-.02,.16-.03,.31-.02,.46,0,0,0,0,0,.01,0,0,0,0,0,0,0,.05,0,.1,.01,.14,0,0,0,0,0,0,0,0,0,0,0,0,0,0,0,0,0,0,0,0,0,.02,0,.03,0,.09,.01,.18,.03,.26h0s0,0,0,0,0,0,0,0c.01,.05,.03,.1,.04,.16,0,0,0,0,0,0,0,0,0,0,0,0,0,0,0,0,0,0,0,.03,.02,.06,.03,.09,.01,.05,.03,.1,.04,.15,0,0,0,0,0,0,0,0,0,0,0,0,0,0,0,0,0,0,.02,.05,.05,.1,.07,.15h0s0,0,0,0c0,0,0,0,0,0,.02,.05,.05,.09,.07,.14,.01,.02,.02,.05,.04,.07h0s0,0,0,0c0,0,0,0,0,.01,.03,.05,.06,.09,.09,.13,0,0,0,0,0,0,0,0,0,0,0,0,0,0,0,0,0,0,.03,.03,.05,.07,.08,.1,.02,.03,.04,.05,.06,.08,0,0,0,0,0,0,0,0,0,0,0,0,0,0,0,0,0,0s0,0,0,0c.04,.05,.09,.09,.14,.13,0,0,0,0,0,0,0,0,0,0,0,0,0,0,0,0,0,0,.06,.06,.12,.11,.18,.16,0,0,0,0,0,0,0,0,0,0,0,0,0,0,0,0,0,0,.05,.04,.11,.08,.17,.12,0,0,0,0,0,0,0,0,0,0,0,0,0,0,0,0,0,0,0,0,.02,.01,.03,.02,.06,.04,.13,.08,.19,.12,0,0,0,0,0,0,0,0,0,0,0,0,0,0,0,0,0,0,0,0,0,0,0,0,.06,.04,.13,.07,.2,.11,0,0,0,0,0,0,0,0,0,0,0,0,0,0,0,0,0,0,.08,.04,.17,.09,.27,.13,0,0,0,0,0,0,0,0,0,0,0,0,0,0,0,0,0,0,.07,.03,.15,.07,.23,.1,0,0,0,0,0,0,0,0,0,0,0,0,.09,.04,.19,.08,.3,.11,0,0,0,0,0,0,0,0,0,0,0,0,0,0,0,0,0,0,0,0,0,0,0,0,.08,.03,.17,.06,.25,.09,0,0,0,0,0,0,0,0,0,0,0,0,0,0,0,0,0,0,.02,0,.04,.01,.06,.02,.09,.03,.18,.06,.28,.08,0,0,0,0,.01,0,0,0,0,0,0,0,0,0,0,0,0,0,0,0,0,0,.01,0,.09,.03,.18,.05,.28,.08,0,0,0,0,0,0,0,0,0,0,0,0,0,0,0,0,0,0,.01,0,.03,0,.04,0,.11,.03,.23,.05,.34,.08,0,0,.01,0,.02,0,0,0-.01,0-.02,0,0,0,.01,0,.02,0,0,0,.01,0,.02,0,.1,.02,.19,.04,.29,.07,0,0,0,0,.01,0,0,0,0,0,0,0,0,0,0,0-.01,0,.15,.03,.31,.06,.46,.09-.01,0-.03,0-.04,0,.01,0,.02,0,.04,0,.01,0,.03,0,.04,0,.1,.02,.19,.04,.29,.05,0,0,0,0,.01,0,0,0,0,0,.01,0,0,0,0,0-.01,0,.17,.03,.36,.06,.54,.08-.03,0-.05,0-.08-.01,.02,0,.05,0,.08,.01,.03,0,.05,0,.08,.01,.09,.01,.17,.03,.25,.04,0,0,.01,0,.02,0,0,0,.01,0,.02,0,0,0-.01,0-.02,0,.01,0,.03,0,.04,0,.14,.02,.29,.04,.44,.06,.06,0,.11,.01,.17,.02-.04,0-.07,0-.11-.01,.04,0,.07,0,.11,.01,.06,0,.11,.01,.17,.02,.04,0,.08,.01,.13,.02,0,0,.01,0,.02,0,0,0,.01,0,.02,0,0,0-.01,0-.02,0,0,0,.01,0,.02,0,.03,0,.05,0,.08,0,.31,.03,.62,.07,.94,.1-.22-.02-.42-.04-.64-.07,.21,.02,.42,.05,.64,.07,.93-.15,1.85-.32,2.77-.49,5.59-1.06,11.1-2.47,16.61-3.9,1.29-.33,2.57-.67,3.86-1,4.1-1.05,8.2-2.06,12.35-2.89,2.76-.55,5.54-1.02,8.34-1.37,18.33-2.26,36.59-5.3,55.15-2.95,11.93,1.51,29.02,11.11,30.98,26.31,4.69,11.64-.71,21.48-7.28,29.75-7.63,9.59-16.5,17.14-27.6,20.94h-145.01c-.31-.14-.62-.26-.92-.4Zm501.1-34.52c-2.3,11.16-7.09,21.87-14.24,31.22-1.1,1.43-2.28,2.65-3.52,3.7H510.97c8.5-9.43,14.42-20.34,17.7-32.61,5.84-21.87-3.11-43.34-22.47-55.06-12.73-7.7-26.77-10.51-41.34-11.23-16.52-.82-32.86,1.61-49.25,3.13-2.2,.2-5.51,.43-6.44-.22,0,0,1.22-3.44,1.98-5.21,14.55-33.93,13.27-66.64-8.58-97.16-6.35-8.87-14.87-16-25.85-19.24-7.7-2.27-14.81-.51-17.83,6.46-18.3,42.1-48.23,76.6-73.92,113.83-19.13,27.72-19.97,55.94-5.36,85.34,2.13,4.3,5.34,8.07,8.22,11.98h-30.76c-.03-.06-.06-.12-.09-.19-.09-.19-.19-.4-.28-.61-.03-.07-.07-.15-.1-.22-.07-.15-.13-.3-.2-.46-.04-.09-.08-.2-.12-.29-.06-.15-.13-.3-.19-.46-.04-.11-.09-.21-.13-.32-.06-.16-.13-.32-.19-.48-.05-.12-.1-.25-.15-.37-.06-.16-.13-.33-.19-.5-.05-.13-.1-.25-.15-.38-.07-.18-.14-.36-.21-.55-.05-.13-.1-.25-.14-.38-.07-.19-.14-.39-.22-.58-.05-.13-.1-.26-.15-.39-.08-.21-.15-.41-.23-.62-.04-.12-.09-.24-.13-.36-.09-.24-.17-.48-.26-.72-.04-.1-.07-.2-.11-.3-.1-.29-.21-.58-.31-.87-.02-.05-.04-.1-.06-.16-.51-1.44-1.02-2.92-1.51-4.36,0-.02-.02-.05-.02-.07-.24-.7-.47-1.4-.7-2.07v-.02c-1.08-3.27-2.05-6.34-2.73-8.48-.57-1.82-.93-2.97-.93-2.97-.12-.42-.23-.83-.34-1.25-.01-.05-.03-.1-.04-.15-.15-.55-.3-1.11-.45-1.66-.12-.44-.23-.89-.34-1.33-.15-.58-.29-1.16-.43-1.74-.11-.45-.21-.9-.31-1.34-.04-.17-.08-.35-.11-.52-.09-.41-.18-.82-.27-1.23-.09-.44-.19-.88-.28-1.32-.04-.2-.08-.39-.11-.59-.08-.41-.16-.83-.24-1.24s-.16-.83-.24-1.24c-.13-.71-.25-1.42-.37-2.14-.05-.31-.11-.62-.16-.93-.13-.79-.24-1.58-.36-2.38-.03-.22-.07-.44-.1-.66-.04-.3-.08-.59-.12-.89-.07-.52-.13-1.04-.2-1.56-.03-.21-.06-.43-.08-.64-.05-.39-.09-.78-.13-1.17-.07-.64-.14-1.29-.21-1.93-.04-.42-.08-.84-.12-1.26-.03-.28-.05-.55-.07-.83-.03-.35-.06-.69-.09-1.04-.03-.42-.07-.84-.1-1.26-.02-.22-.03-.44-.04-.66-.03-.42-.06-.83-.08-1.25-.02-.4-.05-.81-.07-1.21-.04-.69-.07-1.39-.1-2.09-.01-.34-.03-.69-.04-1.03-.04-1.04-.07-2.07-.08-3.11-.06-3.32-.03-6.66,.08-10.01,.04-1.19,.09-2.38,.15-3.57,.14-2.73,.32-5.46,.56-8.2,1.95-22.87,7.83-44.55,17.04-65.38,25.54-57.77,67.3-100.69,122.16-130.96,37.06-20.45,76.85-33.01,119.11-37.49,38.71-4.09,76.04,1.04,112.55,14.51,13.58,5.01,26.95,10.35,40.2,16.11,1.86,.81,2.66,1.86,2.73,3.37,0,0-3.03,1.38-4.74,2.08-8.17,3.32-13.63,5.09-21.84,9.77-9.73,5.84-19.5,11.63-29.19,17.53-12.47,7.6-22.11,18.26-31.53,29.19-14.88,17.25-23.76,37.77-28.15,59.51-2.51,12.42-2.15,26.18,1.14,39.02,5.24,20.45,15.05,38.18,31.02,52.56,19.11,17.21,41.91,26.09,66.65,29.49,37.64,5.17,69.5-7.81,95.96-34.52,23.45-23.67,39.77-51.74,50.49-83.19,1.1-3.24,1.76-8.54,4.29-8.9,3.54-.51,4.89,4.64,6.98,7.47,29.73,40.26,37.52,85.24,27.56,133.56Zm58.24-296.22c-5.14,4.54-11.5,6.84-18.59,6.33-1.02-.06-2.21,.2-3.02-.24-8.5-4.6-12.49,1.59-17.66,6.59-10.33,10.01-19.83,20.94-31.78,29.23-4.26,2.96-7.17,3.84-10.34-1.73-4.92-8.65-13.02-14.68-20-21.57-2.4-2.37-2.17-3.49-.03-5.11,6.12-4.64,12.28-9.23,18.48-13.76,6.4-4.68,12.5-9.72,18.47-14.94,2.56-2.24,3.02-4.22,1.82-7.4-3.76-9.97-3.52-19.82,4-27.95,8.04-8.69,18.55-10.22,29.77-7.94,5.99,1.22,10.24,4.83,12.85,10.27,1.22,2.54,2.52,4.24,5.72,4.56,9.93,1,15.79,6.99,18.02,16.4,2.47,10.4,.53,19.98-7.72,27.26Z"/>
      </g>
      <path class="cls-1" d="M859.64,818.6H197.11c-5.75,0-10.41,4.66-10.41,10.42s4.66,10.42,10.41,10.42H859.64c5.75,0,10.42-4.66,10.42-10.42s-4.66-10.42-10.42-10.42Z"/>
    </g>
    <path class="cls-2" d="M666.74,321.79l-31.87-18.4,21.16-12.18c6.69-3.85,8.99-12.39,5.14-19.08h0c-3.85-6.69-12.39-8.99-19.08-5.14l-35.19,20.26-43.75-25.26,50.21-30.27,36.91,17.05c7.01,3.24,15.31,.18,18.55-6.83h0c3.24-7.01,.18-15.31-6.83-18.55l-19.71-9.1,23.31-14.05c6.61-3.98,8.74-12.57,4.75-19.18-3.98-6.61-12.57-8.74-19.18-4.75l-21.69,13.08,2.64-17.38c1.16-7.63-4.09-14.76-11.72-15.91-7.63-1.16-14.76,4.09-15.91,11.72l-6.13,40.34-48.72,29.37v-55.39l34.8-29.37c5.9-4.98,6.65-13.79,1.67-19.69s-13.79-6.65-19.69-1.67l-16.78,14.16v-26.6c0-7.72-6.26-13.97-13.97-13.97s-13.97,6.26-13.97,13.97v23.9l-15.02-9.16c-6.59-4.02-15.19-1.94-19.21,4.65h0c-4.02,6.59-1.94,15.19,4.65,19.21l29.57,18.05v62.45l-49.25-28.43-3.79-40.46c-.72-7.68-7.53-13.33-15.22-12.61-7.68,.72-13.33,7.53-12.61,15.22l1.94,20.72-24.21-13.98c-6.68-3.86-15.23-1.57-19.09,5.11h0c-3.86,6.68-1.57,15.23,5.11,19.09l20.34,11.74-11.77,7.68c-6.46,4.22-8.28,12.88-4.06,19.34,4.22,6.46,12.88,8.28,19.34,4.06l23.62-15.42,56.12,32.4-45.8,27.61-24.49-17.52c-6.28-4.49-15.01-3.04-19.5,3.24h0c-4.49,6.28-3.04,15.01,3.24,19.5l14.68,10.5-30.57,18.43c-6.61,3.98-8.74,12.57-4.75,19.18h0c3.98,6.61,12.57,8.74,19.18,4.75l23.46-14.14-2.08,15.19c-1.05,7.65,4.31,14.69,11.95,15.74s14.69-4.31,15.74-11.95l5.13-37.51,47.33-28.53v53.04l-29.69,21.01c-6.3,4.46-7.79,13.18-3.34,19.48,4.46,6.3,13.18,7.79,19.48,3.34l13.54-9.58v31.28c0,7.72,6.26,13.97,13.97,13.97s13.97-6.26,13.97-13.97v-33.72l17.13,13.66c6.03,4.81,14.83,3.82,19.64-2.21s3.82-14.83-2.21-19.64l-34.56-27.56v-49.63l48.14,27.79,9.57,39.03c1.84,7.5,9.4,12.08,16.9,10.24h0c7.5-1.84,12.08-9.4,10.24-16.9l-3.19-13.02,21.48,12.4c6.68,3.86,15.23,1.57,19.09-5.11h0c3.86-6.68,1.57-15.23-5.11-19.09Z"/>
  </g>
</svg>